<?xml version="1.0" encoding="UTF-8"?>
<svg version="1.1" viewBox="0 0 1261 1261" width="1261" height="1261" xmlns="http://www.w3.org/2000/svg">
<path transform="translate(344,118)" d="m0 0 110 1 6 4 6 6v2h2l8 10 9 10 9 11 8 9v2h2l9 11 3 3v2h2l9 11 10 10 4 6 1 3h-93l-46-1h-69l-33 2-24 4-17 4-12 4-11 5-14 7-5 3h-2v2l-6 2v2l-6 4h-2v2l-10 8-7 7-7 9h-2l-2 4-11 16-8 16-6 16-3 12-2 7-3 14-2 19v29l2 21 4 20 4 14 3 7 5 13 6 11 10 16 1 3h2l8 10v2l4 2 8 8 8 6v2l5 2 13 9 12 6 14 6 10 3 7 3 17 4 12 2 16 2 31 1 28-1 18-2 22-4 9-3 13-3 3-4 1-83v-16l-2-3-116-1-1-1v-96l1-1 225-1 3 3 1 4v261l-3 5-8 4-20 8-15 5-12 5-26 7-18 5-20 4-24 3-4 1-21 2-20 1h-41l-18-1-34-4-29-6-15-5-13-4-15-6-13-5-15-8-18-11-8-5v-2l-5-2-3-2v-2l-4-2-8-6v-2l-4-2-20-20-8-10v-2h-2l-12-17-8-13-10-18-5-13-5-11-6-19-4-15-3-20-1-3-2-17-1-24v-25l1-19 4-28 4-16 4-15 3-7 3-10 5-11 9-19 8-14h2l2-6 4-6h2l2-5 2-3h2l2-4 6-8h2l2-4 20-20 10-8h2v-2l17-12 9-6 11-6 16-8 23-10 18-6 33-8 11-2 38-4z" fill="#0C3872"/>
<path transform="translate(526,119)" d="m0 0 12 1 253 1 44 2 21 2 23 4 18 4 24 8 14 7 9 5 18 12v2l4 2 16 16 10 14 8 13 6 13 4 10 4 14 4 22 1 15v31l-1 14-4 19-5 16-5 13-10 18-10 13-9 10-7 7-16 12-18 10-12 6-12 4-3 2-1 6 8 10 9 12 13 18v2h2l10 15 12 16 11 15 21 28v2h2l8 12 10 13 2 5h2l7 10 13 18 9 12 10 14 5 6-1 7-2 1h-131l-6-5-8-12-10-14-20-30-22-32-13-19-7-10-11-16-12-18-9-14-7-10-11-17-5-3-4-1h-6l-3-7v-89l2-2 7-1h27l17-1 21-4 17-6 10-6 3-1v-2l8-7 2-3h2l2-5 7-14 2-6 2-10v-29l-4-16-8-16-9-11-10-8-16-8-13-4-22-4-20-1h-70l-114-1-10 1-7-3-8-11-7-8-5-6v-2h-2l-8-10v-2h-2l-8-10-22-26-7-8-5-6-2-5 1-4z" fill="#9EC858"/>
<path transform="translate(308,745)" d="m0 0 7 4 11 7 11 6 10 6 11 6 6 3v2l4 1 16 9 11 7 11 6 16 9 14 9 11 6 17 10 15 9 7 4 6 4 3 5v211l-3 5-14 8-7 5-11 6-16 9-14 9-11 6-13 8-11 6-18 11-11 6-12 7-14 7-7 5-11 6-12 7-6 1-12-6-10-7-16-9-11-6-15-9-17-10-9-5-17-10-11-7-10-5-8-5-9-5-12-7-11-6-10-6-6-3v-2h-2l-2-3v-213l5-6 39-22 10-6 10-5 13-8 28-16 15-9 16-9 11-7 11-6 10-6 11-6 5-4zm0 74-8 2v2l-5 2-28 16-34 20-12 7-11 6-12 7-14 9-2 3v138l4 6 13 8 16 9 11 7 11 6 16 9 12 7 6 4h3v2l11 6 10 6 5 4h11l11-7 9-5 14-8 19-11 11-6 10-6 11-6 14-8 12-7 6-5 2-5v-139l-9-7-13-8-11-6-16-9-11-7-12-7-23-13-15-9-11-7z" fill="#0D3973"/>
<path transform="translate(598,298)" d="m0 0 105 1 4 5 1 93v119l-1 161-3 5-2 1-104 1-5-5-1-3v-371l4-6z" fill="#9EC858"/>
<path transform="translate(589,879)" d="m0 0 14 1h68l11 1 17 4 13 8v2l4 2v2h2l6 10 2 6 1 9v9l-2 10-2 6-6 10-7 6-10 6-1 2 6 1 8 3 9 7 5 6 5 10 2 7v24l-4 12-6 10h-2v2h-2v2l-11 8-10 4-14 3-5 1-90 1-4-1-2-4v-186zm40 33-5 2-1 5v38l5 2h36l9-2 7-4 6-8 2-6v-9l-5-10-5-5-8-2zm-3 77-2 2v47l3 3 21 1h16l13-1 11-7 4-5 2-5v-17l-4-8-7-6-11-4z" fill="#113C75"/>
<path transform="translate(1069,871)" d="m0 0 14 1h13l7 2 1 1-1 108-1 10 4-1 2-4 5-5 8-11 12-14 7-9h2l2-4 6-8 10-1h26l6 2v3l-7 6-6 8-11 14h-2l-2 5-12 14-7 8 2 9 9 10 9 12 10 13 9 11 11 14 3 4-2 4-36 1-7-2-9-11-9-13-7-9-10-13-6-9-1-3-8-6 1 61-3 4h-34l-2-4v-194z" fill="#143F77"/>
<path transform="translate(807,933)" d="m0 0h18l18 4 12 6 10 9 5 8 2 7 2 18v86l-2 2-26 1-2-1-2-4-1-10-3-2-2 5-8 7-7 4-5 2-8 2h-22l-13-4-11-7-6-8-4-9-2-11 1-11 2-8 6-10 9-8 12-6 7-2 25-4 21-1 2-1v-12l-4-7-8-4h-26l-15 4-12 5h-5l-1-1v-26l4-5 6-2 16-3zm17 78-15 2-12 4-7 6-2 6v9l4 6 6 4 3 1h15l12-6v-2h2v-2h2l4-7 1-12-1-8-1-1z" fill="#113D75"/>
<path transform="translate(973,933)" d="m0 0h22l13 4 9 6 7 7 5 9 3 9 1 16v86l-1 3h-35l-2-4v-81l-3-10-4-6v-2l-4-2-3-2h-16l-12 6-6 8-2 6-1 85-2 2h-34l-2-2v-132l5-4 5 1h11l8 1 3 5 2 9 3 3 5-7h2v-2h2v-2l9-6z" fill="#0E3A74"/>
<path transform="translate(624,1038)" d="m0 0 3 2 21 1h25v1l-6 1h-38l-5-1z" fill="#FDFDFD"/>
</svg>
